<svg xmlns="http://www.w3.org/2000/svg" viewBox="0 0 128 128" width="512px" height="512px">
  <path
    d="M 64 6 C 32 6 6 32 6 64 C 6 76.2 9.7007812 87.900781 16.800781 97.800781 C 17.400781 98.600781 18.299219 99.099609 19.199219 99.099609 C 19.799219 99.099609 20.400391 98.9 20.900391 98.5 C 22.200391 97.5 22.599609 95.700781 21.599609 94.300781 C 15.399609 85.400781 12 74.9 12 64 C 12 36.3 33.7 13.699609 61 12.099609 L 61 21.099609 C 54 21.599609 47.199219 23.8 41.199219 27.5 C 39.799219 28.4 39.399219 30.199609 40.199219 31.599609 C 41.099219 32.999609 42.900781 33.399609 44.300781 32.599609 C 50.300781 28.899609 57 27 64 27 C 84.4 27 101 43.6 101 64 C 101 71 99.100391 77.699609 95.400391 83.599609 C 94.500391 84.999609 94.900391 86.899219 96.400391 87.699219 C 96.900391 87.999219 97.4 88.199219 98 88.199219 C 99 88.199219 100 87.700781 100.5 86.800781 C 104.7 80.000781 107 72.1 107 64 C 107 41.3 89.3 22.699609 67 21.099609 L 67 12.099609 C 76.8 12.699609 86.200781 15.899219 94.300781 21.699219 C 95.600781 22.699219 97.5 22.4 98.5 21 C 99.5 19.7 99.200781 17.800781 97.800781 16.800781 C 87.900781 9.7007812 76.2 6 64 6 z M 108.67969 28.939453 C 108.10547 28.94707 107.525 29.125 107 29.5 C 105.7 30.5 105.30078 32.299219 106.30078 33.699219 C 112.60078 42.599219 116 53 116 64 C 116 91.7 94.3 114.30039 67 115.90039 L 67 106.90039 C 74 106.40039 80.800781 104.2 86.800781 100.5 C 88.200781 99.6 88.600781 97.800391 87.800781 96.400391 C 86.900781 95.000391 85.099219 94.600391 83.699219 95.400391 C 77.699219 99.100391 71 101 64 101 C 43.6 101 27 84.4 27 64 C 27 57 28.899609 50.300391 32.599609 44.400391 C 33.499609 43.000391 33.099609 41.100781 31.599609 40.300781 C 30.199609 39.400781 28.3 39.800781 27.5 41.300781 C 23.3 48.000781 21 55.9 21 64 C 21 86.7 38.7 105.30039 61 106.90039 L 61 115.90039 C 51.2 115.30039 41.799219 112.10078 33.699219 106.30078 C 32.399219 105.30078 30.5 105.6 29.5 107 C 28.5 108.3 28.799219 110.19922 30.199219 111.19922 C 40.099219 118.29922 51.8 122 64 122 C 96 122 122 96 122 64 C 122 51.8 118.29922 40.099219 111.19922 30.199219 C 110.57422 29.386719 109.63672 28.926758 108.67969 28.939453 z M 64 38 C 56.8 38 51 43.8 51 51 C 51 58.2 56.8 64 64 64 C 71.2 64 77 58.2 77 51 C 77 43.8 71.2 38 64 38 z M 64 44 C 67.9 44 71 47.1 71 51 C 71 54.9 67.9 58 64 58 C 60.1 58 57 54.9 57 51 C 57 47.1 60.1 44 64 44 z M 64 68 C 55.7 68 48.1 72.499609 44 79.599609 C 43.2 81.099609 43.699609 82.899219 45.099609 83.699219 C 45.599609 83.999219 46.099609 84.099609 46.599609 84.099609 C 47.599609 84.099609 48.699219 83.599219 49.199219 82.699219 C 52.199219 77.399219 57.9 74.099609 64 74.099609 C 70.1 74.099609 75.800781 77.399219 78.800781 82.699219 C 79.600781 84.099219 81.500391 84.600781 82.900391 83.800781 C 84.300391 83.000781 84.8 81.099219 84 79.699219 C 79.9 72.499219 72.3 68 64 68 z" />
</svg>