<svg xmlns="http://www.w3.org/2000/svg" viewBox="0 0 128 128">
  <path
    d="M63 11.5c-7 0-13.4 3.2-17.6 8.8-1 1.3-.7 3.2.6 4.2 1.3 1 3.2.7 4.2-.6 3.1-4.1 7.7-6.4 12.8-6.4h2c7.8 0 14.3 5.6 15.7 13H19c-7.2 0-13 5.8-13 13v60c0 7.2 5.8 13 13 13h90c7.2 0 13-5.8 13-13v-60c0-7.2-5.8-13-13-13H86.8c-1.5-10.7-10.7-19-21.8-19Zm-44 25h90c3.9 0 7 3.1 7 7v60c0 3.9-3.1 7-7 7H19c-3.9 0-7-3.1-7-7v-60c0-3.9 3.1-7 7-7zm41 16c-1.7 0-3 1.3-3 3v11H46c-1.7 0-3 1.3-3 3v8c0 1.7 1.3 3 3 3h11v11c0 1.7 1.3 3 3 3h8c1.7 0 3-1.3 3-3v-11h11c1.7 0 3-1.3 3-3v-8c0-1.7-1.3-3-3-3H71v-11c0-1.7-1.3-3-3-3z" />
</svg>