<svg xmlns="http://www.w3.org/2000/svg" viewBox="0 0 48 48">
  <line x1="24" x2="24" y1="27" y2="34" fill="none" stroke="#000" stroke-linecap="round" stroke-linejoin="round"
    stroke-miterlimit="10" stroke-width="3" />
  <line x1="20.5" x2="27.5" y1="30.5" y2="30.5" fill="none" stroke="#000" stroke-linecap="round" stroke-linejoin="round"
    stroke-miterlimit="10" stroke-width="3" />
  <path fill="none" stroke="#000" stroke-linecap="round" stroke-linejoin="round" stroke-miterlimit="10" stroke-width="3"
    d="M5.5,19.5v-4c0-2.2,1.8-4,4-4h29c2.2,0,4,1.8,4,4v10.4" />
  <path fill="none" stroke="#000" stroke-linecap="round" stroke-linejoin="round" stroke-miterlimit="10" stroke-width="3"
    d="M42.5,31.5v6c0,2.2-1.8,4-4,4h-29c-2.2,0-4-1.8-4-4V25.9" />
  <path fill="none" stroke="#000" stroke-linejoin="round" stroke-miterlimit="10" stroke-width="3"
    d="M16.5,11.5v-3c0-1.1,0.9-2,2-2h11c1.1,0,2,0.9,2,2v3" />
  <line x1="42" x2="5.5" y1="19.5" y2="19.5" fill="none" stroke="#000" stroke-linecap="round" stroke-linejoin="round"
    stroke-miterlimit="10" stroke-width="3" />
  <g>
    <line x1="13" x2="13" y1="18" y2="21" fill="none" stroke="#000" stroke-linecap="round" stroke-linejoin="round"
      stroke-miterlimit="10" stroke-width="3" />
    <line x1="35" x2="35" y1="18" y2="21" fill="none" stroke="#000" stroke-linecap="round" stroke-linejoin="round"
      stroke-miterlimit="10" stroke-width="3" />
  </g>
</svg>