<svg xmlns="http://www.w3.org/2000/svg" viewBox="0 0 128 128">
  <path
    d="M10.5,127h107c3.4,0,6.5-1.8,8.2-4.7c1.7-3,1.7-6.5,0-9.5L97.1,63.3c-0.8-1.4-2.7-1.9-4.1-1.1c-1.4,0.8-1.9,2.7-1.1,4.1 l28.6,49.5c0.9,1.6,0.3,3,0,3.5c-0.3,0.5-1.2,1.7-3,1.7h-107c-1.8,0-2.7-1.2-3-1.7c-0.3-0.5-0.9-1.9,0-3.5L61,23.1 c0.9-1.6,2.4-1.7,3-1.7s2.1,0.2,3,1.7l13,22.5L47.9,72.5c-1,0.8-1.3,2.1-0.9,3.3c0.4,1.2,1.6,2,2.8,2h25.8L47.9,101 c-1.3,1.1-1.4,3-0.4,4.2c1.1,1.3,3,1.4,4.2,0.4l34-28.6c1-0.8,1.3-2.1,0.9-3.3c-0.4-1.2-1.6-2-2.8-2H58.1l27.7-23.3 c1.1-0.9,1.4-2.5,0.7-3.8L72.2,20.1c-1.7-3-4.8-4.7-8.2-4.7s-6.5,1.8-8.2,4.7L2.3,112.8c-1.7,3-1.7,6.5,0,9.5 C4,125.2,7.1,127,10.5,127z" />
</svg>