<svg xmlns="http://www.w3.org/2000/svg" viewBox="0 0 128 128">
   <path
      d="M10.5 119.8h107c3.4 0 6.5-1.8 8.2-4.7 1.7-3 1.7-6.5 0-9.5L97.1 56.1c-.8-1.4-2.7-1.9-4.1-1.1-1.4.8-1.9 2.7-1.1 4.1l28.6 49.5c.9 1.6.3 3 0 3.5s-1.2 1.7-3 1.7h-107c-1.8 0-2.7-1.2-3-1.7-.3-.5-.9-1.9 0-3.5L61 15.9c.9-1.6 2.4-1.7 3-1.7.6 0 2.1.2 3 1.7l13 22.5-32.1 26.9c-1 .8-1.3 2.1-.9 3.3.4 1.2 1.6 2 2.8 2h25.8L47.9 93.8c-1.3 1.1-1.4 3-.4 4.2 1.1 1.3 3 1.4 4.2.4l34-28.6c1-.8 1.3-2.1.9-3.3-.4-1.2-1.6-2-2.8-2H58.1l27.7-23.3c1.1-.9 1.4-2.5.7-3.8L72.2 12.9c-1.7-3-4.8-4.7-8.2-4.7-3.4 0-6.5 1.8-8.2 4.7L2.3 105.6c-1.7 3-1.7 6.5 0 9.5 1.7 2.9 4.8 4.7 8.2 4.7z" />
</svg>