<svg xmlns="http://www.w3.org/2000/svg" viewBox="0 0 128 128">
   <path
      d="M52.5 1c-1.7 0-3 1.3-3 3v7.1c-20.7 1.6-37 18.9-37 39.9 0 1.7 1.3 3 3 3s3-1.3 3-3c0-18.7 15.3-34 34-34H73c1.1 3.5 4.3 6.2 8.2 6.6l31 3.4h.3c.7 0 1.5-.3 2-.8.6-.6 1-1.4 1-2.2V4c0-.9-.4-1.7-1-2.2-.6-.5-1.5-.8-2.3-.8l-31 3.4c-3.9.4-7 3.1-8.2 6.6H55.5V4c0-1.7-1.3-3-3-3zm57 6.3v13.3l-27.7-3c-1.9-.1-3.3-1.7-3.3-3.6 0-1.9 1.4-3.5 3.3-3.7zM52.5 25c-2.9 0-5.7.5-8.5 1.4-1.6.5-2.4 2.2-1.9 3.8.5 1.6 2.2 2.4 3.8 1.9 2.1-.7 4.3-1.1 6.5-1.1 11 0 20 9 20 20v67c0 1.7-1.3 3-3 3H35.5c-1.7 0-3-1.3-3-3V51c0-2.5.5-5 1.4-7.4.6-1.5-.1-3.3-1.7-3.9-1.5-.6-3.3.1-3.9 1.7-1.2 3-1.8 6.3-1.8 9.6v67c0 5 4 9 9 9h34c5 0 9-4 9-9V51c0-14.3-11.7-26-26-26z" />
</svg>