<svg xmlns="http://www.w3.org/2000/svg" viewBox="0 0 128 128">
  <path
    d="M 64 1 C 62.3 1 61 2.3 61 4 L 61 11.099609 C 40.3 12.699609 24 30 24 51 C 24 52.7 25.3 54 27 54 C 28.7 54 30 52.7 30 51 C 30 32.3 45.3 17 64 17 L 84.5 17 C 85.6 20.5 88.799219 23.199609 92.699219 23.599609 L 123.69922 27 L 124 27 C 124.7 27 125.5 26.699219 126 26.199219 C 126.6 25.599219 127 24.8 127 24 L 127 4 C 127 3.1 126.6 2.3007812 126 1.8007812 C 125.4 1.3007812 124.49922 1 123.69922 1 L 92.699219 4.4003906 C 88.799219 4.8003906 85.7 7.5 84.5 11 L 67 11 L 67 4 C 67 2.3 65.7 1 64 1 z M 121 7.3007812 L 121 20.599609 L 93.300781 17.599609 C 91.400781 17.499609 90 15.9 90 14 C 90 12.1 91.400781 10.500781 93.300781 10.300781 L 121 7.3007812 z M 64 25 C 61.1 25 58.3 25.500391 55.5 26.400391 C 53.9 26.900391 53.099609 28.599219 53.599609 30.199219 C 54.099609 31.799219 55.800391 32.599609 57.400391 32.099609 C 59.500391 31.399609 61.700391 31 63.900391 31 C 74.900391 31 83.900391 40 83.900391 51 L 83.900391 118 C 83.900391 119.7 82.600391 121 80.900391 121 L 47 121 C 45.3 121 44 119.7 44 118 L 44 51 C 44 48.5 44.500391 45.999609 45.400391 43.599609 C 46.000391 42.099609 45.299219 40.299219 43.699219 39.699219 C 42.199219 39.099219 40.400781 39.800391 39.800781 41.400391 C 38.600781 44.400391 38 47.7 38 51 L 38 118 C 38 123 42 127 47 127 L 81 127 C 86 127 90 123 90 118 L 90 51 C 90 36.7 78.3 25 64 25 z" />
</svg>