<svg xmlns="http://www.w3.org/2000/svg" viewBox="0 0 128 128">
   <path
      d="M63.585 6c-5.8 0-11 3.9-12.5 9.6l-28 102.6c-.4 1.6.5 3.2 2.1 3.7.3.1.5.1.8.1 1.3 0 2.501-.9 2.901-2.2l28-102.6c.8-3 3.599-5.2 6.799-5.2h14.5c.9 0 1.8.4 2.4 1.2.6.7.8 1.7.5 2.6l-11 40.2h-17.1c-1.7 0-3 1.3-3 3s1.3 3 3 3h15.401l-3.8 14h-17.6c-1.7 0-3 1.3-3 3s1.3 3 3 3h16l-3.801 14h-17.2c-1.7 0-3 1.3-3 3s1.3 3 3 3h15.5l-4.4 16.2c-.4 1.6.5 3.2 2.1 3.7 1.6.4 3.201-.5 3.701-2.1l27.9-102.4c.8-2.8.2-5.6-1.5-7.9-1.7-2.2-4.3-3.5-7.2-3.5Zm20.4 50c-1.7 0-3 1.3-3 3s1.3 3 3 3h5.5l9.6 57.5c.2 1.5 1.5 2.5 3 2.5h.5c1.5-.3 2.6-1.9 2.4-3.5l-10-60c-.2-1.4-1.5-2.5-3-2.5z" />
</svg>