<?xml version="1.0"?><svg xmlns="http://www.w3.org/2000/svg" viewBox="0 0 128 128">
  <path
    d="M 58.599609 8 C 52.799609 8 47.599609 11.899609 46.099609 17.599609 L 18.099609 120.19922 C 17.699609 121.79922 18.599219 123.40039 20.199219 123.90039 C 20.499219 124.00039 20.7 124 21 124 C 22.3 124 23.500391 123.10078 23.900391 121.80078 L 51.900391 19.199219 C 52.700391 16.199219 55.499219 14 58.699219 14 L 73.199219 14 C 74.099219 14 74.999609 14.399219 75.599609 15.199219 C 76.199609 15.899219 76.399609 16.900781 76.099609 17.800781 L 65.099609 58 L 48 58 C 46.3 58 45 59.3 45 61 C 45 62.7 46.3 64 48 64 L 63.400391 64 L 59.599609 78 L 42 78 C 40.3 78 39 79.3 39 81 C 39 82.7 40.3 84 42 84 L 58 84 L 54.199219 98 L 37 98 C 35.3 98 34 99.3 34 101 C 34 102.7 35.3 104 37 104 L 52.5 104 L 48.099609 120.19922 C 47.699609 121.79922 48.599219 123.40039 50.199219 123.90039 C 51.799219 124.30039 53.400391 123.40078 53.900391 121.80078 L 81.800781 19.400391 C 82.600781 16.600391 82.000781 13.8 80.300781 11.5 C 78.600781 9.3 75.999609 8 73.099609 8 L 58.599609 8 z M 79 58 C 77.3 58 76 59.3 76 61 C 76 62.7 77.3 64 79 64 L 84.5 64 L 94.099609 121.5 C 94.299609 123 95.599609 124 97.099609 124 L 97.599609 124 C 99.099609 123.7 100.2 122.1 100 120.5 L 90 60.5 C 89.8 59.1 88.5 58 87 58 L 79 58 z" />
</svg>