<svg xmlns="http://www.w3.org/2000/svg" fill="#ffffff" xml:space="preserve" viewBox="0 0 423.686 111.478">
  <path
    d="M47.258 86.45C35.083 83.882 25.643 73.26 24.362 60.688c-1.16-11.374 4.386-22.62 13.972-28.337 3.064-1.828 7.798-3.658 8.237-3.185.285.308 2.926 11.085 2.746 11.208-.057.04-.862.352-1.788.695-8.173 3.03-13.125 12.255-11.006 20.506 2.253 8.773 10.755 14.78 19.216 13.58 1.067-.152 2.003-.22 2.08-.151.187.166 2.839 11.212 2.72 11.33-.05.051-.934.252-1.965.448-2.814.534-7.93.384-11.316-.33zm27.354-5.14c-3.125-1.684-4.548-4.777-3.686-8.015 1.724-6.48 10.61-7.082 13.195-.894.783 1.874.675 3.756-.33 5.758-1.234 2.459-2.844 3.462-5.789 3.606-1.654.08-2.639-.052-3.39-.456zm61.384-5.439c-8.222-1.35-13.703-5.875-15.558-12.842-.654-2.455-.628-8.39.047-10.982 2.09-8.02 9.387-12.863 19.415-12.883 3.715-.007 6.499.424 9.59 1.485l2.204.756V48.952l-3.018-1.04c-6.431-2.217-12.327-1.61-15.943 1.64-2.39 2.15-3.377 4.469-3.381 7.95-.007 5.115 2.65 8.823 7.444 10.39 3.56 1.164 9.976.575 13.54-1.244.732-.373 1.416-.679 1.52-.679.106 0 .191 1.646.191 3.656v3.656l-2.028.9c-1.116.494-2.664 1.074-3.44 1.287-1.88.518-8.377.766-10.583.403zm36.729-.212c-6.916-1.31-11.958-5.63-13.774-11.806-.872-2.964-1.055-7.48-.43-10.634 1.803-9.107 8.785-14.075 19.751-14.055 6.354.012 11.21 1.751 14.745 5.28 3.407 3.402 4.877 7.386 4.886 13.25.015 9.06-4.726 15.48-13.01 17.617-3.213.829-8.786.988-12.168.348zm10.235-7.848c2.005-1.037 4.13-3.563 4.835-5.745.827-2.561.776-6.858-.11-9.224-1.512-4.038-4.74-6.312-9.086-6.402-3.31-.069-5.44.632-7.473 2.46-3.24 2.914-4.365 7.93-2.877 12.831.624 2.055 1.101 2.878 2.448 4.225 2.235 2.235 4.002 2.85 7.809 2.715 2.219-.078 3.377-.302 4.454-.86zm83.034 8.16c-6.618-.885-11.688-3.75-14.52-8.202-1.826-2.873-2.58-6.021-2.546-10.619.023-3.063.207-4.597.75-6.261 2.463-7.544 8.964-11.717 18.257-11.72 7.53-.001 13.143 2.954 15.564 8.197.941 2.036 1.016 2.513 1.016 6.433 0 2.328-.114 4.51-.253 4.85-.235.572-1.2.618-13.141.618h-12.888v.825c0 .454.495 1.815 1.1 3.025 1.9 3.805 5.247 5.592 11.107 5.932 3.83.222 7.107-.288 10.627-1.655l2.566-.996v5.913l-2.411 1.214c-1.327.668-3.413 1.474-4.637 1.791-2.248.583-8.319.958-10.59.654zm10.043-24.2c-.37-2.223-1.424-4.037-2.906-5.001-4.851-3.156-11.925-1.245-14.238 3.846-1.278 2.813-1.78 2.653 8.367 2.653h9.027zm31.067 24.06c-8.438-1.325-13.964-6.191-15.554-13.696-.95-4.478-.381-9.591 1.495-13.446 2.08-4.276 7.03-7.882 12.374-9.014 4.794-1.016 12.389-.429 16.226 1.255l1.5.658v3.724c0 2.048-.067 3.724-.148 3.724-.08 0-.85-.301-1.708-.669-6.585-2.823-13.978-2.17-17.711 1.562-4.437 4.437-3.795 12.718 1.27 16.388 3.818 2.765 10.997 2.921 16.775.365l1.521-.673v7.354l-1.4.715c-3.238 1.652-10.076 2.47-14.64 1.753zm34.44-.173c-4.573-.992-7.665-3.686-9.298-8.101-.765-2.068-.785-2.537-.905-20.55l-.123-18.432H340.783v11.289h12.7v7.055h-12.7v7.521c0 8.74.323 10.458 2.288 12.183 2.514 2.207 6.467 2.407 12.088.61.789-.251.794-.23.794 3.462v3.714l-1.852.553c-4.217 1.26-8.79 1.514-12.557.696zm31.43.007c-5.844-1.27-10.19-5.758-11.777-12.165-.711-2.87-.61-9.892.18-12.508 1.925-6.371 5.936-10.287 11.784-11.502 2.72-.564 7.538-.245 9.878.656 2.19.843 4.906 2.827 5.9 4.31.387.578.823 1.051.969 1.052.145 0 .264-1.27.264-2.822v-2.822H399.697v35.631H390.172v-6.138l-1.721 1.931c-2.08 2.333-4.502 3.714-7.705 4.393-2.912.617-4.876.613-7.771-.016zm9.96-7.267c5.755-1.598 8.576-8.517 6.326-15.52-1.204-3.746-4.82-6.301-8.925-6.308-3.097-.005-4.762.576-6.731 2.346-2.134 1.918-3.24 4.396-3.462 7.76-.458 6.934 3.65 12.002 9.8 12.09.873.012 2.22-.154 2.991-.368zM205.668 57.68V39.864h9.173v3.175c0 1.746.122 3.175.272 3.175.15 0 .578-.566.95-1.258.938-1.742 2.744-3.238 5.464-4.527 2.184-1.035 2.54-1.094 6.543-1.094 3.919 0 4.382.073 6.237.984 3.109 1.526 4.94 3.979 6.17 8.265.48 1.674.612 4.272.734 14.475l.15 12.435h-9.536l-.13-11.73c-.142-12.804-.282-13.77-2.296-15.872-2.473-2.58-7.844-2.158-10.922.86-3.04 2.98-3.62 5.886-3.63 18.188l-.006 8.554h-9.173zm-125.31-.504c-2.825-.913-4.641-3.534-4.663-6.733-.037-5.453 5.725-8.667 10.51-5.862 3.233 1.894 4.311 6.383 2.311 9.62-1.541 2.494-5.348 3.882-8.157 2.975zM64.016 37.456c-2.775-1.298-4.292-4.079-3.924-7.19.426-3.595 3.053-5.924 6.68-5.924 2.366 0 3.622.43 4.963 1.698 1.511 1.43 2.11 2.851 2.11 5.004-.003 3.947-2.563 6.728-6.407 6.96-1.423.085-2.407-.072-3.422-.548z" />
</svg>