<svg xmlns="http://www.w3.org/2000/svg" viewBox="0 0 64 64" width="512px" height="512px">
  <path
    d="M60,44.18427V39a27.88669,27.88669,0,0,0-7.163-18.683l.46179-1.53919a2.99552,2.99552,0,0,0-5.23334-2.70306,27.7575,27.7575,0,0,0-7.58685-3.75183A4.9863,4.9863,0,0,0,35.53125,8h-7.0625a4.9863,4.9863,0,0,0-4.94739,4.32294,27.75534,27.75534,0,0,0-7.58667,3.75164,2.99611,2.99611,0,0,0-5.23352,2.70325L11.163,20.317A27.88669,27.88669,0,0,0,4,39v5.18427A2.99507,2.99507,0,0,0,2,47v2a1.00022,1.00022,0,0,0,.48535.85742C2.90332,50.1084,12.94238,56,32,56s29.09668-5.8916,29.51465-6.14258A1.00022,1.00022,0,0,0,62,49V47A2.99507,2.99507,0,0,0,60,44.18427ZM50.42676,16.91553a1,1,0,0,1,.956,1.28808L46.53223,34.37207a1.00309,1.00309,0,0,1-1.24414.66992.999.999,0,0,1-.6709-1.24511L49.4668,17.62939A1.00388,1.00388,0,0,1,50.42676,16.91553ZM26.23438,10.999A2.96249,2.96249,0,0,1,28.46875,10h7.0625a2.96249,2.96249,0,0,1,2.23437.999,3.0024,3.0024,0,0,1,.74708,2.33252L36.40137,32.33105A2.99714,2.99714,0,0,1,33.41992,35H30.58008a2.99711,2.99711,0,0,1-2.98145-2.66846l-2.11133-19A3.0024,3.0024,0,0,1,26.23438,10.999Zm-13.54,6.44239a.99109.99109,0,0,1,.59277-.4834,1.00237,1.00237,0,0,1,1.24609.67041l4.84961,16.16846a.999.999,0,0,1-.6709,1.24511,1.00145,1.00145,0,0,1-1.24414-.66992L12.61719,18.20361A.99192.99192,0,0,1,12.69434,17.44141Zm-.84845,5.15216,3.70587,12.35272a3,3,0,0,0,5.74707-1.72363L16.73016,17.99a25.75822,25.75822,0,0,1,6.866-3.56409l2.01422,18.12683A4.99579,4.99579,0,0,0,30.58008,37h2.83984a4.99581,4.99581,0,0,0,4.96973-4.44775L40.40387,14.4259a25.75629,25.75629,0,0,1,6.86621,3.56421L42.70117,33.22266a3,3,0,1,0,5.74707,1.72363l3.70587-12.35272A25.88274,25.88274,0,0,1,58,39v5H6V39A25.88274,25.88274,0,0,1,11.84589,22.59357ZM60,48.40723C57.80469,49.5498,48.21289,54,32,54,15.832,54,6.20312,49.54785,4,48.40625V47a1.00067,1.00067,0,0,1,1-1H59a1.00067,1.00067,0,0,1,1,1Z" />
</svg>